<svg width="47" height="68" viewBox="0 0 47 68" fill="none" xmlns="http://www.w3.org/2000/svg">
<circle cx="23.4999" cy="64.8776" r="3.12245" fill="#2F943F"/>
<path d="M23.5 0C11.0646 0 0.948975 10.039 0.948975 22.3776C0.948975 38.8864 21.7553 58.508 22.6412 59.3359C22.8834 59.5605 23.1917 59.6735 23.5 59.6735C23.8083 59.6735 24.1166 59.5605 24.3589 59.3359C25.2446 58.508 46.051 38.8864 46.051 22.3776C46.051 10.039 35.9354 0 23.5 0ZM23.5 34.8096C16.5922 34.8096 10.9716 29.2322 10.9716 22.3776C10.9716 15.5229 16.5923 9.94554 23.5 9.94554C30.4077 9.94554 36.0284 15.523 36.0284 22.3776C36.0284 29.2321 30.4078 34.8096 23.5 34.8096Z" fill="#2F943F"/>
</svg>
